<svg width="18" height="24" viewBox="0 0 18 24" fill="none" xmlns="http://www.w3.org/2000/svg">
<g clip-path="url(#clip0_606_8655)">
<path d="M4.72668 17.7786C5.43746 18.6631 6.08435 19.5949 6.66269 20.5672C7.15648 21.4815 7.36233 22.1015 7.7232 23.2032C7.94452 23.8119 8.14454 23.9936 8.57459 23.9936C9.0432 23.9936 9.25581 23.6845 9.42008 23.2066C9.76119 22.1661 10.0288 21.3721 10.4511 20.6218C11.2797 19.1733 12.3094 17.8862 13.3211 16.6491C13.595 16.299 15.3658 14.2592 16.163 12.6498C16.163 12.6498 17.1428 10.8818 17.1428 8.4127C17.1428 6.10307 16.1765 4.50122 16.1765 4.50122L13.3945 5.22881L11.705 9.57438L11.287 10.1736L11.2034 10.2821L11.0922 10.418L10.8971 10.6351L10.6183 10.9073L9.11378 12.1043L5.3524 14.2252L4.72668 17.7786Z" fill="#34A853"/>
<path d="M0.844604 12.3527C1.76262 14.4004 3.53289 16.2005 4.73061 17.7802L11.0923 10.421C11.0923 10.421 10.196 11.5657 8.57027 11.5657C6.75936 11.5657 5.29639 10.1535 5.29639 8.37276C5.29639 7.15163 6.04867 6.31274 6.04867 6.31274L1.73021 7.44277L0.844604 12.3527Z" fill="#FBBC04"/>
<path d="M11.1633 0.378483C13.2761 1.04375 15.0846 2.44039 16.1784 4.49988L11.0942 10.4167C11.0942 10.4167 11.8464 9.56263 11.8464 8.3491C11.8464 6.52693 10.2753 5.16566 8.57792 5.16566C6.97286 5.16566 6.05103 6.30844 6.05103 6.30844V2.58092L11.1633 0.378418V0.378483Z" fill="#4285F4"/>
<path d="M2.00989 2.99281C3.27183 1.51834 5.49236 0 8.5537 0C10.039 0 11.1579 0.380796 11.1579 0.380796L6.04616 6.31167H2.4244L2.00989 2.99281Z" fill="#1A73E8"/>
<path d="M0.844553 12.3527C0.844553 12.3527 0 10.7376 0 8.39776C0 6.18629 0.880312 4.25321 2.00993 2.99292L6.04908 6.31231L0.844553 12.3527Z" fill="#EA4335"/>
</g>
<defs>
<clipPath id="clip0_606_8655">
<rect width="17.1429" height="24" fill="white"/>
</clipPath>
</defs>
</svg>
