<svg width="78" height="68" viewBox="0 0 78 68" fill="none" xmlns="http://www.w3.org/2000/svg">
<path d="M57 63.5901C57.735 63.5901 58.4963 63.4065 59.1788 63.039C60.675 62.2515 61.5938 60.6764 61.5938 58.9964V55.2691C69.5212 54.4553 74.7188 48.6276 74.7188 40.2801V24.5303C74.7188 15.5003 68.655 9.43652 59.625 9.43652H33.375C24.345 9.43652 18.2812 15.5003 18.2812 24.5303V40.2801C18.2812 49.3101 24.345 55.3739 33.375 55.3739H43.2713L54.4538 62.8291C55.2151 63.3278 56.1075 63.5901 57 63.5901ZM59.625 13.3477C66.3975 13.3477 70.7812 17.7315 70.7812 24.504V40.2542C70.7812 47.0267 66.3975 51.4104 59.625 51.4104C58.5487 51.4104 57.6562 52.3029 57.6562 53.3792V58.9704C57.6562 59.3117 57.4462 59.4691 57.315 59.5478C57.1837 59.6266 56.9212 59.7053 56.6325 59.5216L44.9512 51.7517C44.6362 51.5417 44.2425 51.4104 43.8487 51.4104H33.3487C26.5762 51.4104 22.1925 47.0267 22.1925 40.2542V24.504C22.1925 17.7315 26.5762 13.3477 33.3487 13.3477H59.625Z" fill="#363062"/>
<path d="M46.5005 36.7891C47.5767 36.7891 48.4692 35.8966 48.4692 34.8203V34.2692C48.4692 31.2242 46.238 29.7279 45.398 29.1504C44.4268 28.4941 44.1118 28.0479 44.1118 27.3654C44.1118 26.0529 45.188 24.9766 46.5005 24.9766C47.813 24.9766 48.8892 26.0529 48.8892 27.3654C48.8892 28.4417 49.7817 29.3342 50.8579 29.3342C51.9342 29.3342 52.8267 28.4417 52.8267 27.3654C52.8267 23.8742 49.9917 21.0391 46.5005 21.0391C43.0092 21.0391 40.1743 23.8742 40.1743 27.3654C40.1743 30.3579 42.3792 31.8541 43.193 32.4054C44.2167 33.0879 44.5317 33.5342 44.5317 34.2692V34.8203C44.5317 35.9228 45.4242 36.7891 46.5005 36.7891Z" fill="#363062"/>
<path d="M46.5 43.3252C47.6025 43.3252 48.4688 42.4327 48.4688 41.3564C48.4688 40.2802 47.5763 39.3877 46.5 39.3877C45.4237 39.3877 44.5312 40.2802 44.5312 41.3564C44.5312 42.4327 45.3975 43.3252 46.5 43.3252Z" fill="#363062"/>
<path d="M48.1665 6.88477H19.8332C11.3332 6.88477 5.6665 12.5514 5.6665 21.0514V38.0514C5.6665 46.5514 11.3332 52.2181 19.8332 52.2181V58.2531C19.8332 60.5198 22.3548 61.8798 24.2248 60.6048L36.8332 52.2181H48.1665C56.6665 52.2181 62.3332 46.5514 62.3332 38.0514V21.0514C62.3332 12.5514 56.6665 6.88477 48.1665 6.88477ZM33.9998 41.3664C32.8098 41.3664 31.8748 40.4031 31.8748 39.2414C31.8748 38.0798 32.8098 37.1164 33.9998 37.1164C35.1898 37.1164 36.1248 38.0798 36.1248 39.2414C36.1248 40.4031 35.1898 41.3664 33.9998 41.3664ZM37.5698 29.6081C36.4648 30.3448 36.1248 30.8264 36.1248 31.6198V32.2148C36.1248 33.3764 35.1615 34.3398 33.9998 34.3398C32.8382 34.3398 31.8748 33.3764 31.8748 32.2148V31.6198C31.8748 28.3331 34.2832 26.7181 35.1898 26.0948C36.2382 25.3864 36.5782 24.9048 36.5782 24.1681C36.5782 22.7514 35.4165 21.5898 33.9998 21.5898C32.5832 21.5898 31.4215 22.7514 31.4215 24.1681C31.4215 25.3298 30.4582 26.2931 29.2965 26.2931C28.1348 26.2931 27.1715 25.3298 27.1715 24.1681C27.1715 20.3998 30.2315 17.3398 33.9998 17.3398C37.7682 17.3398 40.8282 20.3998 40.8282 24.1681C40.8282 27.3981 38.4482 29.0131 37.5698 29.6081Z" fill="#363062"/>
</svg>
