<svg width="18" height="24" viewBox="0 0 18 24" fill="none" xmlns="http://www.w3.org/2000/svg">
<g clip-path="url(#clip0_546_3133)">
<path d="M4.72656 17.7788C5.43734 18.6634 6.08423 19.5952 6.66257 20.5674C7.15636 21.4818 7.36221 22.1018 7.72308 23.2035C7.9444 23.8122 8.14442 23.9938 8.57446 23.9938C9.04308 23.9938 9.25569 23.6848 9.41995 23.2068C9.76107 22.1664 10.0287 21.3724 10.451 20.6221C11.2796 19.1736 12.3093 17.8864 13.321 16.6493C13.5948 16.2992 15.3656 14.2595 16.1629 12.65C16.1629 12.65 17.1427 10.8821 17.1427 8.41294C17.1427 6.10332 16.1764 4.50146 16.1764 4.50146L13.3944 5.22905L11.7048 9.57462L11.2869 10.1738L11.2033 10.2824L11.0921 10.4183L10.897 10.6353L10.6181 10.9076L9.11366 12.1046L5.35228 14.2255L4.72656 17.7788Z" fill="#34A853"/>
<path d="M0.844727 12.3525C1.76274 14.4002 3.53301 16.2002 4.73073 17.7799L11.0924 10.4208C11.0924 10.4208 10.1962 11.5654 8.5704 11.5654C6.75948 11.5654 5.29651 10.1532 5.29651 8.37251C5.29651 7.15139 6.04879 6.3125 6.04879 6.3125L1.73033 7.44253L0.844727 12.3525Z" fill="#FBBC04"/>
<path d="M11.1635 0.378483C13.2764 1.04375 15.0848 2.44039 16.1787 4.49988L11.0944 10.4167C11.0944 10.4167 11.8467 9.56263 11.8467 8.3491C11.8467 6.52693 10.2755 5.16566 8.57817 5.16566C6.9731 5.16566 6.05127 6.30844 6.05127 6.30844V2.58092L11.1635 0.378418V0.378483Z" fill="#4285F4"/>
<path d="M2.00977 2.99281C3.27171 1.51834 5.49224 0 8.55358 0C10.0388 0 11.1578 0.380796 11.1578 0.380796L6.04604 6.31167H2.42427L2.00977 2.99281Z" fill="#1A73E8"/>
<path d="M0.844553 12.3525C0.844553 12.3525 0 10.7374 0 8.39752C0 6.18605 0.880312 4.25297 2.00993 2.99268L6.04908 6.31207L0.844553 12.3525Z" fill="#EA4335"/>
</g>
<defs>
<clipPath id="clip0_546_3133">
<rect width="17.1429" height="24" fill="white"/>
</clipPath>
</defs>
</svg>
