<svg width="80" height="24" viewBox="0 0 80 24" fill="none" xmlns="http://www.w3.org/2000/svg">
<g clip-path="url(#clip0_422_6929)">
<mask id="mask0_422_6929" style="mask-type:luminance" maskUnits="userSpaceOnUse" x="0" y="0" width="24" height="24">
<path d="M24 0H0V24H24V0Z" fill="white"/>
</mask>
<g mask="url(#mask0_422_6929)">
<path fill-rule="evenodd" clip-rule="evenodd" d="M3.93652 2.97421C3.99334 2.92214 4.05979 2.88185 4.13207 2.85563C4.20436 2.82942 4.28107 2.81779 4.35781 2.82142C4.43457 2.82505 4.50985 2.84385 4.57938 2.87677C4.64891 2.90969 4.71132 2.95607 4.76304 3.01327C4.81476 3.07047 4.85478 3.13736 4.88083 3.21012C4.90687 3.2829 4.91842 3.36011 4.91481 3.43737C4.91121 3.51464 4.89252 3.59042 4.85982 3.66042C4.82712 3.73041 4.78105 3.79323 4.72424 3.8453C3.16415 5.27072 2.05051 7.12288 1.51952 9.17535C0.988535 11.2278 1.06321 13.3916 1.73442 15.4019C2.03863 16.3097 2.46142 17.1728 2.99166 17.9684C3.03433 18.0325 3.06404 18.1044 3.0791 18.1801C3.09415 18.2558 3.09425 18.3337 3.07939 18.4094C3.06452 18.4852 3.03499 18.5572 2.99247 18.6214C2.94996 18.6857 2.89529 18.7408 2.83159 18.7838C2.7679 18.8267 2.69642 18.8567 2.62123 18.8718C2.54605 18.887 2.46864 18.887 2.39342 18.8721C2.31821 18.8571 2.24666 18.8274 2.18285 18.7846C2.11905 18.7418 2.06424 18.6868 2.02157 18.6226C0.422048 16.2158 -0.264576 13.3102 0.086967 10.436C0.438509 7.5619 1.80479 4.9108 3.93652 2.96639V2.97421ZM7.91197 23.2867C7.76633 23.2334 7.64773 23.124 7.58223 22.9825C7.51673 22.8412 7.5097 22.6794 7.56274 22.5328C7.61571 22.3862 7.72442 22.2668 7.86485 22.2009C8.00527 22.1349 8.16602 22.1279 8.3116 22.1812C9.00303 22.4328 9.71811 22.6128 10.4458 22.7184C11.1775 22.8236 11.9179 22.8544 12.6557 22.8102C13.692 22.7487 14.714 22.5369 15.6901 22.1812C15.7623 22.1556 15.8386 22.1445 15.915 22.1486C15.9914 22.1527 16.0662 22.1718 16.1352 22.205C16.2042 22.2382 16.266 22.2847 16.3172 22.342C16.3683 22.3992 16.4077 22.4661 16.4332 22.5387C16.4587 22.6112 16.4697 22.6882 16.4657 22.765C16.4616 22.8419 16.4426 22.9172 16.4096 22.9867C16.3766 23.0562 16.3303 23.1184 16.2735 23.1699C16.2166 23.2214 16.1502 23.2611 16.0782 23.2867C15.5389 23.4847 14.9856 23.642 14.4232 23.7574C13.8595 23.8742 13.2883 23.9506 12.7139 23.9859C11.9019 24.0325 11.0874 23.9958 10.2828 23.8766C9.47554 23.7597 8.68237 23.5594 7.91583 23.2789L7.91197 23.2867ZM21.9783 18.6363C21.9356 18.7004 21.8807 18.7554 21.8169 18.7983C21.7531 18.8411 21.6816 18.8708 21.6064 18.8857C21.5311 18.9007 21.4538 18.9006 21.3785 18.8855C21.3034 18.8703 21.2319 18.8404 21.1682 18.7975C21.1045 18.7545 21.0499 18.6993 21.0073 18.6351C20.9648 18.5709 20.9353 18.4988 20.9204 18.4231C20.9056 18.3474 20.9056 18.2695 20.9207 18.1938C20.9358 18.1181 20.9655 18.0462 21.0081 17.982C22.4566 15.8026 23.0752 13.1701 22.7501 10.5684C22.425 7.96662 21.1782 5.57039 19.2387 3.81991C19.1816 3.76861 19.1351 3.7065 19.1019 3.63712C19.0687 3.56774 19.0494 3.49245 19.045 3.41556C19.0407 3.33866 19.0515 3.26165 19.0767 3.18894C19.1019 3.11623 19.1412 3.04923 19.1921 2.99178C19.2431 2.93433 19.3048 2.88754 19.3737 2.8541C19.4426 2.82064 19.5174 2.80119 19.5938 2.79684C19.6702 2.79248 19.7467 2.80332 19.8189 2.82873C19.8911 2.85413 19.9577 2.89361 20.0148 2.94491C22.1639 4.88433 23.5454 7.5396 23.905 10.4225C24.2647 13.3054 23.5785 16.2221 21.9724 18.6363H21.9783Z" fill="white"/>
<path fill-rule="evenodd" clip-rule="evenodd" d="M17.6887 3.35517C17.6927 3.41574 17.6843 3.47649 17.664 3.53366C17.6438 3.59082 17.6121 3.64319 17.5708 3.68751C17.5297 3.73183 17.4799 3.76716 17.4246 3.79132C17.3692 3.81548 17.3096 3.82794 17.2493 3.82794C17.189 3.82794 17.1293 3.81548 17.074 3.79132C17.0187 3.76716 16.9689 3.73183 16.9277 3.68751C16.8865 3.64319 16.8548 3.59082 16.8345 3.53366C16.8142 3.47649 16.8058 3.41574 16.8098 3.35517V0.884471H16.253V3.35517C16.2417 3.42466 16.2062 3.48784 16.1529 3.53343C16.0996 3.57902 16.0319 3.60405 15.962 3.60405C15.892 3.60405 15.8243 3.57902 15.771 3.53343C15.7178 3.48784 15.6823 3.42466 15.6709 3.35517V0.884471H14.9512V3.35517C14.9398 3.42466 14.9043 3.48784 14.8511 3.53343C14.7977 3.57902 14.7301 3.60405 14.6601 3.60405C14.5902 3.60405 14.5225 3.57902 14.4692 3.53343C14.4159 3.48784 14.3804 3.42466 14.3691 3.35517V0.884471H13.6493V3.35517C13.654 3.39649 13.6501 3.43835 13.6376 3.478C13.6251 3.51765 13.6045 3.5542 13.577 3.58526C13.5495 3.6163 13.5158 3.64115 13.4781 3.65817C13.4404 3.67519 13.3996 3.68398 13.3583 3.68398C13.3169 3.68398 13.2761 3.67519 13.2384 3.65817C13.2007 3.64115 13.167 3.6163 13.1395 3.58526C13.1121 3.5542 13.0914 3.51765 13.0789 3.478C13.0665 3.43835 13.0625 3.39649 13.0672 3.35517V0.884471H12.3474V3.35517C12.3522 3.39649 12.3482 3.43835 12.3357 3.478C12.3233 3.51765 12.3026 3.5542 12.2752 3.58526C12.2476 3.6163 12.2139 3.64115 12.1762 3.65817C12.1385 3.67519 12.0977 3.68398 12.0564 3.68398C12.0151 3.68398 11.9742 3.67519 11.9365 3.65817C11.8988 3.64115 11.8652 3.6163 11.8377 3.58526C11.8102 3.5542 11.7895 3.51765 11.7771 3.478C11.7646 3.43835 11.7606 3.39649 11.7654 3.35517V0.884471H11.0455V3.35517C11.0503 3.39649 11.0463 3.43835 11.0339 3.478C11.0214 3.51765 11.0008 3.5542 10.9732 3.58526C10.9458 3.6163 10.9121 3.64115 10.8744 3.65817C10.8367 3.67519 10.7958 3.68398 10.7546 3.68398C10.7132 3.68398 10.6724 3.67519 10.6347 3.65817C10.597 3.64115 10.5633 3.6163 10.5358 3.58526C10.5083 3.5542 10.4877 3.51765 10.4752 3.478C10.4627 3.43835 10.4588 3.39649 10.4635 3.35517V0.884471H9.74369V3.35517C9.73543 3.42704 9.70125 3.49335 9.64757 3.54148C9.59389 3.58962 9.52452 3.61621 9.4527 3.61621C9.38082 3.61621 9.31145 3.58962 9.25777 3.54148C9.2041 3.49335 9.16991 3.42704 9.16166 3.35517V0.884471H8.44183V3.35517C8.43358 3.42704 8.39939 3.49335 8.34572 3.54148C8.29204 3.58962 8.22267 3.61621 8.15079 3.61621C8.07896 3.61621 8.0096 3.58962 7.95592 3.54148C7.90224 3.49335 7.86806 3.42704 7.8598 3.35517V0.884471H7.19044V3.35517C7.19442 3.41574 7.18605 3.47649 7.16574 3.53366C7.14548 3.59082 7.11375 3.64319 7.07254 3.68751C7.03139 3.73183 6.98158 3.76716 6.92626 3.79132C6.87094 3.81548 6.8113 3.82794 6.751 3.82794C6.69065 3.82794 6.631 3.81548 6.57569 3.79132C6.52037 3.76716 6.47061 3.73183 6.4294 3.68751C6.38819 3.64319 6.35647 3.59082 6.33621 3.53366C6.3159 3.47649 6.30753 3.41574 6.31151 3.35517V0.443064V0.431345V0.419626V0.407907V0.390329V0.374704C6.31274 0.37156 6.31274 0.368083 6.31151 0.364939C6.31151 0.364939 6.31151 0.364939 6.31151 0.35322C6.31174 0.349967 6.31174 0.346707 6.31151 0.343454C6.31134 0.340202 6.31134 0.336941 6.31151 0.333689C6.31151 0.333689 6.31151 0.333689 6.31151 0.32197V0.312204C6.31052 0.309033 6.31052 0.30561 6.31151 0.302438C6.31052 0.299267 6.31052 0.295845 6.31151 0.292673C6.31069 0.288813 6.31069 0.284815 6.31151 0.280954C6.31151 0.280954 6.31151 0.280954 6.31151 0.271189V0.261423V0.251657V0.241892C6.35149 0.161004 6.41518 0.0944088 6.49391 0.0510989C6.5727 0.00778911 6.66273 -0.0101497 6.75194 -0.000295724H17.2483C17.3651 -0.000295724 17.4771 0.0464152 17.5597 0.129561C17.6423 0.212707 17.6887 0.325477 17.6887 0.443064V3.35517Z" fill="white"/>
<path fill-rule="evenodd" clip-rule="evenodd" d="M3.35665 21.9844L2.19255 22.6621L1.85107 22.0762L2.95698 21.4355C3.07352 21.6302 3.20728 21.8139 3.35665 21.9844Z" fill="white"/>
<path fill-rule="evenodd" clip-rule="evenodd" d="M18.6741 3.72977L7.67334 16.6692L8.64341 17.5051L13.1737 14.7122C14.8132 12.1341 19.2737 6.25125 19.6054 3.57938C19.7219 2.61845 19.7238 2.49735 18.6741 3.72977Z" fill="white"/>
<path fill-rule="evenodd" clip-rule="evenodd" d="M7.08346 15.8203C6.23667 15.5911 5.33719 15.6646 4.53828 16.0284C3.73935 16.3921 3.09047 17.0235 2.70223 17.815C2.31399 18.6064 2.21043 19.5089 2.40919 20.3686C2.60796 21.2283 3.09675 21.992 3.79224 22.5295C4.48774 23.067 5.3469 23.3451 6.22327 23.3163C7.09962 23.2875 7.93898 22.9537 8.59816 22.3717C9.2574 21.7897 9.69572 20.9955 9.83837 20.1246C9.98108 19.2537 9.81929 18.3599 9.38061 17.5956C8.87896 16.7207 8.05271 16.0821 7.08346 15.8203ZM4.85032 17.3124C5.35177 17.0199 5.93849 16.9114 6.51045 17.0056C7.08241 17.0998 7.60426 17.3907 7.98703 17.8288C8.36981 18.2669 8.58979 18.825 8.60957 19.4081C8.6293 19.9912 8.44754 20.5631 8.09533 21.0265C7.74311 21.4898 7.24216 21.8158 6.67792 21.949C6.11363 22.0822 5.52094 22.0142 5.00087 21.7567C4.48079 21.4993 4.06549 21.0682 3.82577 20.537C3.58605 20.0058 3.53673 19.4074 3.68622 18.8437C3.77078 18.524 3.91713 18.2242 4.11687 17.9614C4.31661 17.6987 4.56585 17.4781 4.85032 17.3124Z" fill="white"/>
<path fill-rule="evenodd" clip-rule="evenodd" d="M5.3261 3.72977L16.3269 16.6692L15.3568 17.5051L10.8265 14.7122C9.18706 12.1341 4.72659 6.25125 4.39481 3.57938C4.2687 2.61845 4.2687 2.49735 5.3261 3.72977Z" fill="white"/>
<path fill-rule="evenodd" clip-rule="evenodd" d="M16.9163 15.8201C17.7622 15.5921 18.6605 15.6664 19.4581 16.0304C20.2557 16.3944 20.9032 17.0255 21.2904 17.8162C21.6775 18.607 21.7804 19.5084 21.5814 20.3669C21.3824 21.2254 20.8939 21.9879 20.199 22.5244C19.5042 23.061 18.646 23.3385 17.7708 23.3095C16.8956 23.2805 16.0574 22.947 15.399 22.3656C14.7407 21.7843 14.3029 20.9911 14.1604 20.1213C14.0178 19.2515 14.1792 18.3589 14.6171 17.5954C14.8657 17.162 15.1968 16.7821 15.5913 16.4775C15.9857 16.1729 16.436 15.9495 16.9163 15.8201ZM19.1494 17.3122C18.6476 17.0193 18.0604 16.9106 17.4879 17.0047C16.9154 17.0988 16.393 17.3898 16.0098 17.8283C15.6267 18.2667 15.4064 18.8253 15.3866 19.4089C15.3668 19.9926 15.5486 20.565 15.9012 21.0288C16.2537 21.4925 16.7551 21.8188 17.3199 21.952C17.8847 22.0852 18.4779 22.0172 18.9984 21.7594C19.5189 21.5016 19.9345 21.07 20.1743 20.5384C20.4141 20.0066 20.4633 19.4077 20.3135 18.8435C20.1425 18.1979 19.7238 17.6471 19.1494 17.3122Z" fill="white"/>
<path fill-rule="evenodd" clip-rule="evenodd" d="M6.10377 17.9154C5.74063 17.9154 5.38872 18.042 5.10798 18.274C4.82724 18.5058 4.63506 18.8285 4.56417 19.187C4.49328 19.5456 4.54808 19.9177 4.71923 20.2402C4.89038 20.5626 5.16728 20.8153 5.50277 20.9552C5.83825 21.0951 6.21154 21.1136 6.55907 21.0076C6.9066 20.9015 7.20678 20.6774 7.40855 20.3734C7.61033 20.0695 7.70118 19.7045 7.66564 19.3407C7.63005 18.9769 7.47031 18.6368 7.21357 18.3783C7.06799 18.2313 6.89501 18.1147 6.70459 18.0353C6.51411 17.9558 6.30994 17.9151 6.10377 17.9154ZM4.78639 18.1635C5.09096 17.8581 5.49124 17.6685 5.91909 17.6268C6.34693 17.5852 6.77589 17.6941 7.1329 17.935C7.48998 18.176 7.75298 18.534 7.87725 18.9483C8.00153 19.3625 7.97934 19.8073 7.8145 20.2069C7.6496 20.6065 7.3523 20.9363 6.97304 21.14C6.59384 21.3437 6.15622 21.4088 5.73466 21.3243C5.31311 21.2397 4.93371 21.0107 4.66106 20.6761C4.3884 20.3416 4.23935 19.9223 4.23926 19.4896C4.23868 19.2431 4.28675 18.9989 4.38067 18.7713C4.47459 18.5436 4.6125 18.337 4.78639 18.1635Z" fill="white"/>
<path fill-rule="evenodd" clip-rule="evenodd" d="M17.8963 17.9159C17.5335 17.9176 17.1825 18.0459 16.903 18.2788C16.6235 18.5116 16.4328 18.8348 16.3633 19.1933C16.2938 19.5517 16.3498 19.9233 16.5218 20.2449C16.6938 20.5665 16.9711 20.8182 17.3066 20.9572C17.6421 21.0961 18.0151 21.1138 18.3621 21.0072C18.709 20.9005 19.0086 20.6762 19.2099 20.3723C19.4111 20.0684 19.5015 19.7037 19.4658 19.3403C19.43 18.9768 19.2704 18.6371 19.0139 18.3788C18.8687 18.2313 18.6958 18.1144 18.5052 18.0349C18.3147 17.9554 18.1103 17.9149 17.9041 17.9159H17.8963ZM16.5789 18.164C16.8838 17.8566 17.285 17.6652 17.7143 17.6224C18.1437 17.5796 18.5745 17.6879 18.9333 17.9291C19.2921 18.1702 19.5568 18.5291 19.6822 18.9447C19.8076 19.3602 19.786 19.8067 19.6211 20.2079C19.456 20.6093 19.158 20.9405 18.7775 21.1453C18.397 21.3502 17.9578 21.4158 17.5347 21.3311C17.1116 21.2465 16.7307 21.0167 16.457 20.681C16.1833 20.3453 16.0337 19.9244 16.0337 19.4901C16.0333 19.2438 16.0813 18.9999 16.1748 18.7723C16.2684 18.5447 16.4057 18.3379 16.5789 18.164Z" fill="white"/>
</g>
<path d="M35.6488 18.9283C34.7747 18.9283 33.966 18.7699 33.223 18.453C32.48 18.1361 31.8299 17.6936 31.2726 17.1254C30.7153 16.5572 30.2782 15.8907 29.9614 15.1258C29.6554 14.3609 29.5024 13.525 29.5024 12.6181C29.5024 11.7112 29.65 10.8753 29.945 10.1104C30.2509 9.33458 30.6771 8.66802 31.2234 8.11076C31.7807 7.54254 32.4309 7.10551 33.1739 6.79954C33.9169 6.48268 34.7255 6.32422 35.5996 6.32422C36.4737 6.32422 37.255 6.47173 37.9434 6.76676C38.6428 7.06178 39.2328 7.45515 39.7136 7.94685C40.1943 8.42761 40.5385 8.9576 40.7461 9.53671L38.7629 10.4873C38.5335 9.85357 38.1455 9.34002 37.5992 8.94666C37.0529 8.55329 36.3863 8.35661 35.5996 8.35661C34.8347 8.35661 34.1573 8.5369 33.5672 8.89749C32.9881 9.25807 32.5346 9.75522 32.2068 10.389C31.89 11.0228 31.7315 11.7658 31.7315 12.6181C31.7315 13.4704 31.8954 14.2189 32.2232 14.8635C32.562 15.4973 33.0263 15.9945 33.6164 16.355C34.2064 16.7156 34.8839 16.8959 35.6488 16.8959C36.2716 16.8959 36.8453 16.7758 37.3698 16.5353C37.8942 16.284 38.3149 15.9343 38.6318 15.4864C38.9487 15.0274 39.1071 14.4866 39.1071 13.8637V12.9295L40.1233 13.8146H35.5996V11.9297H41.3362V13.159C41.3362 14.0986 41.1777 14.9291 40.8609 15.6503C40.544 16.3714 40.1124 16.9779 39.5661 17.4696C39.0306 17.9503 38.4242 18.3164 37.7467 18.5677C37.0693 18.8081 36.37 18.9283 35.6488 18.9283ZM47.2796 18.9283C46.4054 18.9283 45.6078 18.7262 44.8866 18.3219C44.1763 17.9176 43.6082 17.3658 43.182 16.6665C42.7668 15.9671 42.5592 15.1695 42.5592 14.2735C42.5592 13.3775 42.7668 12.5798 43.182 11.8805C43.6082 11.1812 44.1763 10.6294 44.8866 10.2251C45.5968 9.82079 46.3945 9.61866 47.2796 9.61866C48.1537 9.61866 48.9459 9.82079 49.6562 10.2251C50.3664 10.6294 50.9291 11.1812 51.3444 11.8805C51.7705 12.5689 51.9836 13.3666 51.9836 14.2735C51.9836 15.1695 51.7705 15.9671 51.3444 16.6665C50.9182 17.3658 50.35 17.9176 49.6398 18.3219C48.9295 18.7262 48.1428 18.9283 47.2796 18.9283ZM47.2796 16.9615C47.7604 16.9615 48.1811 16.8468 48.5416 16.6173C48.9131 16.3878 49.2027 16.071 49.4103 15.6667C49.6288 15.2515 49.7381 14.787 49.7381 14.2735C49.7381 13.749 49.6288 13.2901 49.4103 12.8967C49.2027 12.4924 48.9131 12.1755 48.5416 11.9461C48.1811 11.7057 47.7604 11.5855 47.2796 11.5855C46.7879 11.5855 46.3562 11.7057 45.9848 11.9461C45.6132 12.1755 45.3182 12.4924 45.0997 12.8967C44.8921 13.2901 44.7883 13.749 44.7883 14.2735C44.7883 14.787 44.8921 15.2515 45.0997 15.6667C45.3182 16.071 45.6132 16.3878 45.9848 16.6173C46.3562 16.8468 46.7879 16.9615 47.2796 16.9615ZM58.4797 18.9283C57.8351 18.9283 57.2395 18.8026 56.6932 18.5513C56.1578 18.2891 55.7316 17.9176 55.4148 17.4368L55.6278 17.0107V18.7316H53.6118V6.32422H55.759V11.5855L55.4312 11.143C55.7371 10.6622 56.1523 10.2907 56.6768 10.0284C57.2013 9.75522 57.8077 9.61866 58.4961 9.61866C59.3374 9.61866 60.0972 9.82629 60.7744 10.2415C61.4517 10.6567 61.9873 11.214 62.3807 11.9133C62.7852 12.6126 62.9871 13.3994 62.9871 14.2735C62.9871 15.1367 62.7904 15.9235 62.3971 16.6337C62.0037 17.3439 61.4681 17.9067 60.7908 18.3219C60.1136 18.7262 59.3432 18.9283 58.4797 18.9283ZM58.2339 16.9615C58.7257 16.9615 59.1629 16.8468 59.5452 16.6173C59.9274 16.3878 60.2224 16.071 60.4302 15.6667C60.6486 15.2623 60.758 14.798 60.758 14.2735C60.758 13.749 60.6486 13.2901 60.4302 12.8967C60.2224 12.4924 59.9274 12.1755 59.5452 11.9461C59.1629 11.7057 58.7257 11.5855 58.2339 11.5855C57.764 11.5855 57.3379 11.7002 56.9555 11.9297C56.5839 12.1591 56.2889 12.4815 56.0704 12.8967C55.8628 13.301 55.759 13.7599 55.759 14.2735C55.759 14.798 55.8628 15.2623 56.0704 15.6667C56.2889 16.071 56.5839 16.3878 56.9555 16.6173C57.3379 16.8468 57.764 16.9615 58.2339 16.9615ZM67.3282 18.9283C66.7054 18.9283 66.1645 18.8245 65.7056 18.6169C65.2466 18.4093 64.8919 18.1142 64.6402 17.7318C64.3891 17.3385 64.2632 16.885 64.2632 16.3714C64.2632 15.8797 64.3727 15.4426 64.591 15.0602C64.81 14.6669 65.1483 14.339 65.6072 14.0768C66.0661 13.8146 66.6457 13.6288 67.3446 13.5195L70.262 13.0442V14.6832L67.7543 15.1094C67.3282 15.1859 67.0115 15.3225 66.8037 15.5191C66.5965 15.7158 66.4923 15.9726 66.4923 16.2895C66.4923 16.5955 66.607 16.8413 66.8365 17.027C67.0771 17.2019 67.3721 17.2893 67.7216 17.2893C68.17 17.2893 68.5633 17.1964 68.9017 17.0107C69.2517 16.814 69.5192 16.5463 69.7048 16.2075C69.9015 15.8688 69.9998 15.4973 69.9998 15.093V12.7984C69.9998 12.4159 69.847 12.099 69.5409 11.8477C69.2459 11.5855 68.8525 11.4544 68.3608 11.4544C67.9019 11.4544 67.4921 11.58 67.1315 11.8313C66.782 12.0718 66.5251 12.3941 66.3612 12.7984L64.6074 11.9461C64.7824 11.4762 65.0558 11.0719 65.4269 10.7332C65.8098 10.3836 66.2576 10.1104 66.7709 9.91368C67.2849 9.717 67.8421 9.61866 68.4427 9.61866C69.175 9.61866 69.8195 9.75522 70.3768 10.0284C70.934 10.2907 71.3661 10.6622 71.6716 11.143C71.9889 11.6128 72.1469 12.1646 72.1469 12.7984V18.7316H70.1145V17.2073L70.5735 17.1746C70.344 17.557 70.0712 17.8793 69.754 18.1416C69.4373 18.3929 69.0767 18.5896 68.6722 18.7316C68.2683 18.8628 67.8199 18.9283 67.3282 18.9283ZM74.1319 18.7316V9.81534H76.1479V11.7986L75.984 11.5035C76.1912 10.837 76.5138 10.3726 76.951 10.1104C77.3988 9.84812 77.9344 9.717 78.5573 9.717H79.0818V11.6183H78.3114C77.6991 11.6183 77.2074 11.8095 76.8363 12.1919C76.4646 12.5635 76.279 13.0879 76.279 13.7654V18.7316H74.1319Z" fill="white"/>
</g>
<defs>
<clipPath id="clip0_422_6929">
<rect width="79.6098" height="24" fill="white"/>
</clipPath>
</defs>
</svg>
