<svg width="140" height="140" viewBox="0 0 140 140" fill="none" xmlns="http://www.w3.org/2000/svg">
<path fill-rule="evenodd" clip-rule="evenodd" d="M55.9558 18.6683C54.5352 19.8789 53.8249 20.4843 53.0663 20.9927C51.3273 22.1582 49.3744 22.9672 47.3207 23.3726C46.4247 23.5495 45.4944 23.6238 43.6339 23.7722C38.9591 24.1453 36.6218 24.3318 34.6717 25.0206C30.1614 26.6137 26.6137 30.1614 25.0206 34.6717C24.3318 36.6218 24.1453 38.9591 23.7722 43.6339C23.6238 45.4944 23.5495 46.4247 23.3726 47.3207C22.9672 49.3744 22.1582 51.3273 20.9927 53.0663C20.4843 53.8249 19.879 54.5352 18.6683 55.9558C15.6266 59.525 14.1057 61.3098 13.2138 63.1757C11.1511 67.4915 11.1511 72.5087 13.2138 76.8245C14.1057 78.6904 15.6266 80.4751 18.6683 84.0444C19.8788 85.4648 20.4843 86.1753 20.9927 86.9339C22.1582 88.6728 22.9672 90.6257 23.3726 92.6795C23.5495 93.5754 23.6238 94.5057 23.7722 96.3663C24.1453 101.041 24.3318 103.378 25.0206 105.328C26.6137 109.839 30.1614 113.386 34.6717 114.98C36.6218 115.668 38.9591 115.855 43.6339 116.228C45.4944 116.376 46.4247 116.451 47.3207 116.628C49.3744 117.033 51.3273 117.842 53.0663 119.007C53.8249 119.516 54.5352 120.121 55.9558 121.332C59.5251 124.374 61.3098 125.894 63.1757 126.786C67.4915 128.849 72.5087 128.849 76.8245 126.786C78.6904 125.894 80.4751 124.374 84.0444 121.332C85.465 120.121 86.1753 119.516 86.9339 119.007C88.6728 117.842 90.6257 117.033 92.6795 116.628C93.5754 116.451 94.5057 116.376 96.3663 116.228C101.041 115.855 103.378 115.668 105.328 114.98C109.839 113.386 113.386 109.839 114.98 105.328C115.668 103.378 115.855 101.041 116.228 96.3663C116.376 94.5057 116.451 93.5754 116.628 92.6795C117.033 90.6257 117.842 88.6728 119.007 86.9339C119.516 86.1753 120.121 85.465 121.332 84.0444C124.374 80.4751 125.894 78.6904 126.786 76.8245C128.849 72.5087 128.849 67.4915 126.786 63.1757C125.894 61.3098 124.374 59.5251 121.332 55.9558C120.121 54.5352 119.516 53.8249 119.007 53.0663C117.842 51.3273 117.033 49.3744 116.628 47.3207C116.451 46.4247 116.376 45.4944 116.228 43.6339C115.855 38.9591 115.668 36.6218 114.98 34.6717C113.386 30.1614 109.839 26.6137 105.328 25.0206C103.378 24.3318 101.041 24.1453 96.3663 23.7722C94.5057 23.6238 93.5754 23.5495 92.6795 23.3726C90.6257 22.9672 88.6728 22.1582 86.9339 20.9927C86.1753 20.4843 85.465 19.879 84.0444 18.6683C80.4751 15.6266 78.6904 14.1057 76.8245 13.2138C72.5087 11.1511 67.4915 11.1511 63.1757 13.2138C61.3098 14.1057 59.5251 15.6266 55.9558 18.6683ZM95.5121 57.535C97.3661 55.681 97.3661 52.6751 95.5121 50.821C93.6581 48.967 90.6521 48.967 88.7981 50.821L60.505 79.1141L51.2019 69.8111C49.3479 67.9571 46.3419 67.9571 44.4879 69.8111C42.6339 71.6651 42.6339 74.6711 44.4879 76.5251L57.148 89.1852C59.002 91.0392 62.0079 91.0392 63.862 89.1852L95.5121 57.535Z" fill="white"/>
</svg>
