<svg width="20" height="20" viewBox="0 0 20 20" fill="none" xmlns="http://www.w3.org/2000/svg">
<path fill-rule="evenodd" clip-rule="evenodd" d="M8.82784 1.9322C9.56902 1.57794 10.4307 1.57794 11.1718 1.9322C11.4938 2.0861 11.7889 2.33776 12.1974 2.68623C12.2186 2.70432 12.2401 2.72267 12.262 2.74128C12.4604 2.91035 12.5229 2.96234 12.5861 3.00471C12.7469 3.11249 12.9275 3.1873 13.1174 3.22479C13.1921 3.23954 13.273 3.24696 13.5329 3.26769C13.5615 3.26998 13.5896 3.27221 13.6174 3.27442C14.1527 3.31689 14.5393 3.34757 14.8758 3.46643C15.6504 3.74002 16.2597 4.34929 16.5332 5.12388C16.6521 5.46039 16.6828 5.84697 16.7253 6.38226C16.7275 6.41004 16.7297 6.43823 16.732 6.46683C16.7527 6.72667 16.7601 6.80761 16.7749 6.88228C16.8124 7.0722 16.8872 7.2528 16.995 7.4136C17.0373 7.47683 17.0893 7.53931 17.2584 7.73771C17.277 7.75955 17.2954 7.78107 17.3135 7.80228C17.6619 8.21081 17.9136 8.50585 18.0675 8.82784C18.4217 9.56902 18.4217 10.4307 18.0675 11.1718C17.9136 11.4938 17.6619 11.7889 17.3135 12.1974C17.2954 12.2186 17.277 12.2401 17.2584 12.262C17.0893 12.4604 17.0373 12.5229 16.995 12.5861C16.8872 12.7469 16.8124 12.9275 16.7749 13.1174C16.7601 13.1921 16.7527 13.273 16.732 13.5329C16.7297 13.5615 16.7275 13.5896 16.7253 13.6174C16.6828 14.1527 16.6521 14.5393 16.5332 14.8758C16.2597 15.6504 15.6504 16.2597 14.8758 16.5332C14.5393 16.6521 14.1527 16.6828 13.6174 16.7253C13.5896 16.7275 13.5615 16.7297 13.5329 16.732C13.273 16.7527 13.1921 16.7601 13.1174 16.7749C12.9275 16.8124 12.7469 16.8872 12.5861 16.995C12.5229 17.0373 12.4604 17.0893 12.262 17.2584C12.2401 17.277 12.2186 17.2954 12.1974 17.3135C11.7889 17.6619 11.4938 17.9136 11.1718 18.0675C10.4307 18.4217 9.56902 18.4217 8.82784 18.0675C8.50584 17.9136 8.2108 17.6619 7.80226 17.3134C7.78105 17.2954 7.75954 17.277 7.73771 17.2584C7.53931 17.0893 7.47683 17.0373 7.4136 16.995C7.2528 16.8872 7.0722 16.8124 6.88228 16.7749C6.80761 16.7601 6.72667 16.7527 6.46683 16.732C6.43823 16.7297 6.41004 16.7275 6.38226 16.7253C5.84697 16.6828 5.46039 16.6521 5.12388 16.5332C4.34929 16.2597 3.74002 15.6504 3.46643 14.8758C3.34757 14.5393 3.31689 14.1527 3.27442 13.6174C3.27221 13.5896 3.26998 13.5615 3.26769 13.5329C3.24696 13.273 3.23954 13.1921 3.22479 13.1174C3.1873 12.9275 3.11249 12.7469 3.00471 12.5861C2.96234 12.5229 2.91035 12.4604 2.74128 12.262C2.72267 12.2401 2.70432 12.2186 2.68623 12.1974C2.33776 11.7889 2.0861 11.4938 1.9322 11.1718C1.57794 10.4307 1.57794 9.56902 1.9322 8.82784C2.0861 8.50585 2.33776 8.2108 2.68623 7.80227C2.70432 7.78106 2.72267 7.75955 2.74128 7.73771C2.91035 7.53931 2.96234 7.47683 3.00471 7.4136C3.11249 7.2528 3.1873 7.0722 3.22479 6.88228C3.23954 6.80761 3.24696 6.72667 3.26769 6.46683C3.26998 6.43823 3.27221 6.41004 3.27442 6.38226C3.31689 5.84698 3.34757 5.46039 3.46643 5.12388C3.74002 4.34929 4.34929 3.74002 5.12388 3.46643C5.46039 3.34757 5.84698 3.31689 6.38226 3.27442C6.41004 3.27221 6.43823 3.26998 6.46683 3.26769C6.72667 3.24696 6.80761 3.23954 6.88228 3.22479C7.0722 3.1873 7.2528 3.11249 7.4136 3.00471C7.47683 2.96234 7.53931 2.91035 7.73771 2.74128C7.75955 2.72267 7.78106 2.70432 7.80226 2.68623C8.2108 2.33776 8.50584 2.0861 8.82784 1.9322ZM10.6309 3.06392C10.2318 2.87316 9.76786 2.87316 9.36876 3.06392C9.21446 3.13767 9.05183 3.26943 8.5513 3.69598C8.54308 3.70298 8.53497 3.7099 8.52697 3.71672C8.36271 3.85676 8.2428 3.95898 8.11197 4.04667C7.81333 4.24683 7.47794 4.38575 7.12524 4.45539C6.97072 4.48589 6.81365 4.4984 6.59848 4.51553C6.58799 4.51636 6.57737 4.51721 6.56661 4.51807C5.91107 4.57038 5.70289 4.59221 5.54164 4.64916C5.12455 4.79648 4.79648 5.12455 4.64916 5.54164C4.59221 5.70289 4.57038 5.91107 4.51807 6.56661C4.51721 6.57737 4.51636 6.58799 4.51553 6.59848C4.4984 6.81365 4.48589 6.97072 4.45539 7.12524C4.38575 7.47794 4.24683 7.81333 4.04667 8.11197C3.95898 8.2428 3.85676 8.36271 3.71672 8.52697C3.70989 8.53498 3.70298 8.54308 3.69598 8.5513C3.26943 9.05183 3.13767 9.21446 3.06392 9.36876C2.87316 9.76786 2.87316 10.2318 3.06392 10.6309C3.13767 10.7852 3.26943 10.9479 3.69598 11.4484C3.70298 11.4566 3.7099 11.4647 3.71672 11.4727C3.85676 11.637 3.95898 11.7569 4.04667 11.8877C4.24683 12.1863 4.38575 12.5217 4.45539 12.8744C4.48589 13.029 4.4984 13.186 4.51553 13.4012C4.51636 13.4117 4.51721 13.4223 4.51807 13.4331C4.57038 14.0886 4.59221 14.2968 4.64916 14.458C4.79648 14.8751 5.12455 15.2032 5.54164 15.3505C5.70289 15.4075 5.91107 15.4293 6.56661 15.4816L6.59847 15.4842C6.81365 15.5013 6.97072 15.5138 7.12524 15.5443C7.47794 15.6139 7.81333 15.7528 8.11197 15.953C8.2428 16.0407 8.36271 16.1429 8.52697 16.283L8.5513 16.3037C9.05183 16.7302 9.21446 16.862 9.36876 16.9358C9.76786 17.1265 10.2318 17.1265 10.6309 16.9358C10.7852 16.862 10.9479 16.7302 11.4484 16.3037L11.4727 16.2829C11.637 16.1429 11.7569 16.0407 11.8877 15.953C12.1863 15.7528 12.5217 15.6139 12.8744 15.5443C13.029 15.5138 13.186 15.5013 13.4012 15.4842L13.4331 15.4816C14.0886 15.4293 14.2968 15.4075 14.458 15.3505C14.8751 15.2032 15.2032 14.8751 15.3505 14.458C15.4075 14.2968 15.4293 14.0886 15.4816 13.4331L15.4842 13.4012C15.5013 13.186 15.5138 13.029 15.5443 12.8744C15.6139 12.5217 15.7528 12.1863 15.953 11.8877C16.0407 11.7569 16.1429 11.637 16.2829 11.4727L16.3037 11.4484C16.7302 10.9479 16.862 10.7852 16.9358 10.6309C17.1265 10.2318 17.1265 9.76786 16.9358 9.36876C16.862 9.21447 16.7302 9.05183 16.3037 8.5513L16.2829 8.52695C16.1429 8.3627 16.0407 8.2428 15.953 8.11197C15.7528 7.81333 15.6139 7.47794 15.5443 7.12524C15.5138 6.97072 15.5013 6.81365 15.4842 6.59847L15.4816 6.56661C15.4293 5.91107 15.4075 5.70289 15.3505 5.54164C15.2032 5.12455 14.8751 4.79648 14.458 4.64916C14.2968 4.59221 14.0886 4.57038 13.4331 4.51807C13.4223 4.51721 13.4117 4.51636 13.4012 4.51553C13.186 4.4984 13.029 4.48589 12.8744 4.45539C12.5217 4.38575 12.1863 4.24683 11.8877 4.04667C11.7569 3.95898 11.637 3.85675 11.4727 3.71672C11.4647 3.70989 11.4566 3.70298 11.4484 3.69598C10.9479 3.26943 10.7852 3.13767 10.6309 3.06392ZM13.3701 7.46578C13.6151 7.71071 13.6151 8.10781 13.3701 8.35274L9.18897 12.5339C8.94404 12.7788 8.54694 12.7788 8.30201 12.5339L6.62955 10.8614C6.38462 10.6165 6.38462 10.2194 6.62955 9.97447C6.87448 9.72955 7.27158 9.72955 7.51651 9.97447L8.74549 11.2035L12.4832 7.46578C12.7281 7.22085 13.1252 7.22085 13.3701 7.46578Z" fill="#363062"/>
</svg>
